<svg xmlns="http://www.w3.org/2000/svg" data-name="Layer 1" viewBox="0 0 32 40" x="0px" y="0px"><title>Artboard 1</title><path d="M20,19a1,1,0,0,0-1,1v5H13V6a1,1,0,0,0-.63-.93L7.19,3H19v9a1,1,0,0,0,2,0V2a1,1,0,0,0-1-1H2a1,1,0,0,0-.33.06l-.06,0-.13.07-.11.1-.05,0a.75.75,0,0,0-.18.28l0,.06A1,1,0,0,0,1,2V26a1,1,0,0,0,.63.93l10,4A.94.94,0,0,0,12,31a1,1,0,0,0,.56-.17A1,1,0,0,0,13,30V27h7a1,1,0,0,0,1-1V20A1,1,0,0,0,20,19Z"/><path d="M30.92,16.38a1,1,0,0,0,0-.76,1,1,0,0,0-.21-.33l-4-4a1,1,0,0,0-1.42,1.42l.71.7V15H16a1,1,0,0,0,0,2H26v1.59l-.71.7a1,1,0,0,0,0,1.42,1,1,0,0,0,1.42,0l4-4A1,1,0,0,0,30.92,16.38Z"/><text x="0" y="47" fill="#000000" font-size="5px" font-weight="bold" font-family="'Helvetica Neue', Helvetica, Arial-Unicode, Arial, Sans-serif">Created by Adib Muhammad</text><text x="0" y="52" fill="#000000" font-size="5px" font-weight="bold" font-family="'Helvetica Neue', Helvetica, Arial-Unicode, Arial, Sans-serif">from the Noun Project</text></svg>