<svg xmlns="http://www.w3.org/2000/svg" xmlns:xlink="http://www.w3.org/1999/xlink" version="1.1" x="0px" y="0px" viewBox="0 0 512 640" style="enable-background:new 0 0 512 512;" xml:space="preserve"><g><g><g><path d="M367.169,318.501c-3.618,0-7.256-1.22-10.25-3.72l-3.268-2.728c-6.787-5.666-7.696-15.762-2.03-22.549     c5.667-6.788,15.763-7.696,22.548-2.03l3.268,2.728C388.607,299.528,381.908,318.501,367.169,318.501z"/></g><g><path d="M472.187,385.229l-62.423-62.312c-6.257-6.246-16.392-6.236-22.639,0.021     c-6.246,6.257-6.237,16.394,0.021,22.64l62.423,62.311c11.384,11.364,11.385,30.36-0.002,41.724     c-11.514,11.491-30.247,11.489-41.759-0.002L294.216,336.222c44.631-31.274,73.864-83.027,73.864-141.476     C368.08,99.494,290.455,22,195.04,22S22,99.494,22,194.746s77.626,172.745,173.04,172.745c25.002,0,48.777-5.329,70.26-14.896     l119.889,119.676c23.679,23.636,63.312,23.638,86.993,0.004C495.937,448.568,495.94,408.94,472.187,385.229z M54.016,194.746     c0-77.598,63.263-140.728,141.024-140.728c77.761,0,141.023,63.13,141.023,140.728c0,77.597-63.263,140.728-141.023,140.728     C117.279,335.474,54.016,272.343,54.016,194.746z"/><g><path d="M114.852,265.159c-5.108,0-10.126-2.438-13.227-6.973c-12.831-18.761-19.613-40.698-19.613-63.44      c0-23.094,6.976-45.312,20.173-64.252c5.054-7.255,15.033-9.037,22.286-3.983c7.254,5.055,9.037,15.033,3.983,22.287      c-9.437,13.544-14.425,29.433-14.425,45.948c0,16.264,4.849,31.951,14.023,45.365      C135.16,250.505,127.536,265.159,114.852,265.159z"/></g></g></g></g><text x="0" y="527" fill="#000000" font-size="5px" font-weight="bold" font-family="'Helvetica Neue', Helvetica, Arial-Unicode, Arial, Sans-serif">Created by Shocho</text><text x="0" y="532" fill="#000000" font-size="5px" font-weight="bold" font-family="'Helvetica Neue', Helvetica, Arial-Unicode, Arial, Sans-serif">from the Noun Project</text></svg>